<svg id="Слой_1" xmlns="http://www.w3.org/2000/svg" viewBox="0 0 297.6 82.2"><style>.st0{fill:#f7c000}.st0,.st1{fill-rule:evenodd;clip-rule:evenodd}.st1,.st2{fill:#afca0b}.st3{fill-rule:evenodd;clip-rule:evenodd;fill:#00a339}</style><path id="XMLID_56_" class="st0" d="M42.8 52.8l2.1-3.7 4.5 1v.1l.1-.1 1-2.2-1.1-4.1 3.9-2.5h.1l-.9-2.4-3.7-2.1 1-4.5h.1l-.1-.1-2.2-1-4.1 1.1-2.5-3.9v-.1l-2.4.9-2.1 3.7-4.5-1h-.1l-1 2.2 1.1 4.1-3.9 2.5-.1.1.9 2.3 3.7 2.1-1 4.5v.1l2.2 1 4.1-1.1 2.5 3.9.1.1z"/><path id="XMLID_55_" class="st1" d="M10.8 23.8l-.1 3.5v3.4l-3.3 1.1-3.4 1L2 30l-2-2.8 2.1-2.8 2.1-2.8 3.3 1.1z"/><path id="XMLID_54_" class="st1" d="M41.3 20.8l-2.2.7-2.1.8-1.4-1.8-1.4-1.8 1.3-1.9 1.3-1.9 2.2.6 2.2.7v2.3z"/><path id="XMLID_53_" class="st2" d="M5.5 26.6l10.9-7.1.1-.1h.1l10.6-2.1h.3l10.4 1.6h.1l.1.1 8.8 4.3.2.1v.1l-.1.1-9.1-4.3-10.5-1.5-10.6 2.4-10.6 7.4z"/><path id="XMLID_52_" class="st1" d="M31.7 7.6l-2.5 2.5-2.5 2.4-3.1-1.6-3-1.6.5-3.4.6-3.5 3.5-.5 3.4-.5 1.6 3.1z"/><path id="XMLID_51_" class="st1" d="M50.4 18.7l-2.5-.3-2.6-.4-.4-2.6-.5-2.5 2.3-1.2 2.3-1.2 1.8 1.8 1.9 1.8-1.1 2.3z"/><path id="XMLID_50_" class="st2" d="M26 6l12.7 2.6h.1l.1.1 9 6 .1.1.1.1 6.3 8.5v.1l.1.1 3.1 9.3.1.1-.1.2h-.1l-3.4-9.5-6.4-8.5-9.2-5.8-12.7-2.2z"/><path id="XMLID_49_" class="st1" d="M57.9 11.1l-3.4-.1H51l-1.1-3.3-1-3.4 2.8-2 2.9-2 2.8 2.1 2.8 2.1L59 7.8z"/><path id="XMLID_48_" class="st1" d="M63.3 32.1l-1.5-2-1.6-2.1 1.5-2.1 1.5-2.2 2.5.8 2.5.8v5.1l-2.4.9z"/><path id="XMLID_47_" class="st1" d="M61 41.6l-.8-2.2-.8-2.1 1.8-1.4 1.8-1.4 1.9 1.3 1.9 1.3-.6 2.2-.7 2.2h-2.3z"/><path id="XMLID_46_" class="st2" d="M55.1 5.8l7.1 10.9.1.1v.1l2.1 10.6v.3l-1.6 10.4v.1l-.1.1-4.3 8.8-.1.2h-.1l-.1-.1 4.3-9.1 1.5-10.5-2.4-10.6-7.4-10.6z"/><path id="XMLID_45_" class="st1" d="M74.1 32l-2.5-2.5-2.4-2.5 1.6-3.1 1.6-3 3.5.5 3.4.6.5 3.5.5 3.4-3.1 1.6z"/><path id="XMLID_44_" class="st1" d="M69.7 43.4l-.8-3.1-.8-3 2.6-1.7 2.7-1.7 2.4 2 2.4 2-1.1 2.9-1.1 2.9-3.1-.2z"/><path id="XMLID_43_" class="st1" d="M54.6 55.7l1-2 1-2.1 2.2.3 2.3.3.4 2.2.5 2.3-2 1.1-2.1 1.1-1.6-1.6z"/><path id="XMLID_42_" class="st1" d="M47.7 54.7l1.9.5 2 .4.2 2 .2 2-1.8.8-1.8.8-1.4-1.5-1.3-1.5 1-1.7z"/><path id="XMLID_41_" class="st2" d="M75.7 26.3L73.1 39v.1l-.1.1-6 9-.1.1-.1.1-8.5 6.3h-.1l-.1.1-9.3 3.1-.1.1-.1-.1v-.1l9.4-3.4 8.5-6.4 5.8-9.2 2.3-12.7z"/><path id="XMLID_40_" class="st1" d="M70.7 58.2v-6.9l3.4-1.1 3.3-1 2 2.8 2 2.9-2.1 2.8-2 2.8-3.3-1.2z"/><path id="XMLID_39_" class="st1" d="M59.6 63.2l1.5-2.7 1.6-2.7 3.1.6 3 .7.4 3.1.3 3.1-2.9 1.3-2.9 1.3-2.1-2.4z"/><path id="XMLID_38_" class="st1" d="M40.1 61.3l2.2-.8 2.1-.8 1.4 1.8 1.4 1.8-1.3 1.9-1.2 1.9-2.2-.6-2.3-.7v-2.3z"/><path id="XMLID_37_" class="st2" d="M75.9 55.4l-10.8 7.1-.1.1h-.2l-10.6 2.1H54l-10.5-1.6h-.1l-.1-.1-8.8-4.3-.1-.1-.1-.1.1-.1 9.1 4.3 10.6 1.5 10.5-2.4 10.6-7.4z"/><path id="XMLID_36_" class="st1" d="M49.7 74.4l2.5-2.5 2.5-2.4 3.1 1.6 3.1 1.6-.6 3.5-.6 3.4-3.5.5-3.4.5-1.5-3.1z"/><path id="XMLID_35_" class="st1" d="M31 63.3l2.5.3 2.6.4.5 2.6.4 2.5-2.3 1.2-2.3 1.2-1.8-1.8-1.9-1.8 1.1-2.3z"/><path id="XMLID_34_" class="st1" d="M26 54.9l2 1 2.1 1-.3 2.2-.3 2.3-2.2.4-2.3.5-1.1-2-1.1-2.1 1.6-1.6z"/><path id="XMLID_33_" class="st2" d="M55.4 76l-12.7-2.6h-.1l-.1-.1-9-6-.1-.1-.1-.1-6.3-8.5v-.1l-.1-.1-3.1-9.3v-.2h.1l3.4 9.4 6.4 8.5 9.2 5.8 12.8 2.3z"/><path id="XMLID_32_" class="st1" d="M18.5 59.9l2.7 1.5 2.7 1.6-.6 3.1-.7 3-3.1.4-3.1.3-1.3-2.9-1.3-2.9 2.4-2.1z"/><path id="XMLID_31_" class="st1" d="M20.5 40.4l.7 2.2.8 2.1-1.8 1.4-1.8 1.4-1.9-1.3-1.9-1.2.6-2.2.7-2.3h2.3z"/><path id="XMLID_30_" class="st1" d="M26.1 36.2l-1.7 1.1-1.7 1.1-1.6-1.3-1.5-1.2.7-1.9.7-1.9 2 .2 2 .1.5 1.9z"/><path id="XMLID_29_" class="st2" d="M26.3 76.2l-7.1-10.8-.1-.1v-.2L17 54.5v-.2l1.6-10.5v-.1l.1-.1 4.3-8.8.1-.1.1-.1.1.1-4.3 9.1-1.5 10.6 2.4 10.5 7.4 10.6z"/><path id="XMLID_28_" class="st1" d="M11.7 38.6l.8 3.1.8 3-2.6 1.7L8 48.1l-2.4-2-2.4-1.9 1.1-3 1.1-2.9 3.2.2z"/><path id="XMLID_27_" class="st1" d="M26.8 26.3l-1 2-1 2.1-2.2-.3-2.3-.3-.4-2.2-.5-2.3 2.1-1.1 2-1.1 1.6 1.6z"/><path id="XMLID_26_" class="st1" d="M33.7 27.3l-1.9-.4-2-.5-.2-2-.2-1.9 1.8-.9 1.9-.8 1.3 1.5 1.3 1.5-1 1.7z"/><path id="XMLID_25_" class="st2" d="M5.7 55.7L8.3 43v-.1l.1-.1 6-9 .1-.1.1-.1 8.5-6.3h.1l.1-.1 9.3-3.1h.3v.1l-9.5 3.4-8.5 6.4-5.8 9.2L6.9 56z"/><path id="XMLID_24_" class="st3" d="M31.8 18.4l-2 1.5-2.1 1.6-2.1-1.5-2.2-1.5.8-2.5.8-2.4 2.6-.1h2.5l.9 2.4z"/><path id="XMLID_23_" class="st1" d="M54.4 34l.5-1.9.4-2 2-.2 2-.2.8 1.8.8 1.9-1.5 1.3-1.5 1.3-1.7-1z"/><path id="XMLID_22_" class="st1" d="M62.9 22.2l-2.7-1.6-2.7-1.6.6-3.1.7-3 3.1-.3 3.1-.4 1.3 2.9 1.3 2.9-2.4 2.1z"/><path id="XMLID_21_" class="st3" d="M63 50.7l.4-2.5.3-2.6 2.6-.4 2.5-.5L70 47l1.2 2.3-1.8 1.8-1.8 1.9-2.3-1.1z"/><path id="XMLID_20_" class="st3" d="M49.6 63.6l2.1-1.5 2-1.6 2.1 1.5 2.2 1.5-.8 2.5-.8 2.5h-5.1l-.9-2.4z"/><path id="XMLID_19_" class="st3" d="M35.9 55.7l1.1 1.6 1.1 1.7-1.3 1.6-1.2 1.5-1.9-.7-1.8-.7.1-2 .1-2 1.9-.5z"/><path id="XMLID_18_" class="st3" d="M18.1 49.9l1.5 2.1 1.6 2-1.5 2.1-1.5 2.2-2.5-.8-2.4-.8-.1-2.5v-2.6l2.4-.9z"/><path id="XMLID_17_" class="st3" d="M7.3 50l2.5 2.5 2.4 2.5-1.6 3.1L9 61.2l-3.4-.6-3.5-.6-.5-3.5-.5-3.4 3.1-1.5z"/><path id="XMLID_16_" class="st3" d="M18.4 31.3l-.3 2.5-.4 2.6-2.6.5-2.5.4-1.2-2.3-1.2-2.3 1.8-1.8 1.8-1.9 2.3 1.1z"/><path id="XMLID_15_" class="st0" d="M21.9 18.8l-1.6 2.7-1.6 2.7-3.1-.6-3-.7-.3-3.1-.4-3.1 2.9-1.3 2.9-1.3 2.1 2.4z"/><path id="XMLID_14_" class="st0" d="M55.4 45.8l1.6-1.1 1.7-1.1 1.6 1.3 1.5 1.2-.7 1.9-.7 1.9-2-.1-2-.1-.5-2z"/><path id="XMLID_13_" class="st0" d="M38.3 70l3.1-.8 3-.8 1.7 2.6 1.7 2.7-2 2.4-1.9 2.4-3-1.1-2.9-1.1.2-3.1z"/><path id="XMLID_12_" class="st1" d="M45.5 26.4l-1.1-1.7-1.1-1.7 1.3-1.6 1.2-1.5 1.9.7 1.9.7-.1 2-.1 2-2 .5z"/><path id="XMLID_11_" class="st1" d="M43.1 12l-3.1.8-3 .8-1.7-2.6-1.7-2.7 2-2.4 2-2.4 2.9 1.1 2.9 1.1-.2 3.2z"/><path id="XMLID_10_" class="st3" d="M27 48l-.4 1.9-.5 2-2 .2-1.9.2-.9-1.8-.8-1.8 1.5-1.4 1.5-1.3 1.7 1z"/><path id="XMLID_9_" class="st3" d="M23.5 71h6.9l1.1 3.4 1 3.3-2.8 2-2.8 2-2.8-2.1-2.8-2 1.1-3.3z"/><path id="XMLID_8_" class="st3" d="M55.4 27.1l-2-1-2.1-1 .3-2.2.3-2.3 2.2-.4 2.3-.5 1.1 2.1 1.1 2-1.6 1.6z"/><path id="XMLID_58_" class="st0" d="M115.2 44.4h-11.1v-6.7h11.1v-9.1c0-.8-.2-1.5-.5-2.2-.3-.6-.8-1.2-1.4-1.6-.6-.5-1.3-.8-2-1-.8-.2-1.6-.3-2.4-.3-.8 0-1.5.1-2.3.4-.7.3-1.4.7-1.9 1.3-.6.6-1.1 1.3-1.4 2.1-.4 1-.5 2-.5 3v.7H96v-.7c0-2 .4-4 1.2-5.9.7-1.6 1.7-3.1 3-4.3 1.2-1.1 2.6-2 4.2-2.6 1.5-.6 3.1-.9 4.7-.9s3.2.2 4.7.7c1.5.5 2.9 1.2 4.1 2.2 1.2 1 2.2 2.3 2.9 3.7.8 1.6 1.1 3.4 1.1 5.2v24.2c0 1.8-.3 3.5-1.1 5.2-.7 1.4-1.7 2.7-2.9 3.7s-2.6 1.7-4.1 2.2c-1.5.5-3.1.7-4.7.7s-3.2-.3-4.7-.9c-1.5-.6-2.9-1.5-4.2-2.6-1.3-1.2-2.3-2.6-3-4.3-.8-1.8-1.1-3.9-1.2-5.9V50h6.9v.7c0 1 .1 2 .5 3 .3.8.8 1.5 1.4 2.1.6.6 1.2 1 1.9 1.3.7.3 1.5.4 2.3.4.8 0 1.6-.1 2.3-.3.7-.2 1.4-.5 2-1 .6-.4 1-1 1.4-1.6.4-.7.5-1.4.5-2.1v-8.1zm55.5-16.9V37h2.2c1 0 1.9-.2 2.8-.6.9-.4 1.7-1 2.3-1.7.7-.8 1.2-1.7 1.5-2.7l.9-3.3c.3-1.2.6-2.3.9-3.5.2-.8.5-1.6.7-2.5.2-.8.5-1.7.7-2.5.2-.8.4-1.5.6-2.3l.1-.5h7.2l-.2.8-.3 1.2c-.1.5-.3 1-.4 1.5-.1.4-.2.9-.4 1.3l-.6 2.4c-.2.7-.4 1.4-.6 2.2-.6 2.1-1.2 4.3-1.7 6.4v.6c-.2.7-.6 1.5-1 2.1-.5.8-1 1.6-1.7 2.3-.7.7-1.4 1.4-2.3 1.9l-.6.3.6.3c.9.5 1.6 1.1 2.3 1.9.6.7 1.2 1.4 1.7 2.2.4.7.8 1.5 1 2.3.3 1.2.6 2.3.9 3.5l.9 3.6c.2.7.3 1.3.5 2s.3 1.3.5 2c.1.6.3 1.2.4 1.8.1.4.2.8.3 1.1.1.4.2.9.4 1.3.1.3.2.7.3 1l.2.8h-7.1l-.1-.5c-.2-.8-.4-1.7-.6-2.5-.2-.9-.5-1.9-.7-2.8-.2-.9-.5-1.7-.7-2.6-.3-1-.5-1.9-.8-2.9-.2-.7-.4-1.4-.5-2.1l-.2-.7c-.1-.3-.1-.5-.2-.8 0-.2-.1-.3-.1-.5-.3-1-.8-2-1.5-2.8-.6-.7-1.4-1.3-2.3-1.7-.9-.4-1.8-.6-2.8-.6H171v20.5h-7V17.3h6.7v10.2zm109.6-3.4v40.1h-6.7V24.1h-10.4v-6.7H291v6.7h-10.7zm-34.4 33.4c.7-.3 1.4-.7 1.9-1.3.6-.6 1.1-1.3 1.4-2.1.4-.9.5-2 .5-3v-.7h6.9v.7c0 2-.4 4-1.2 5.9-.7 1.6-1.7 3.1-3 4.3-1.2 1.1-2.6 2-4.1 2.6-1.5.6-3.1.9-4.7.9s-3.2-.2-4.7-.7c-1.5-.5-2.9-1.2-4.1-2.2-1.3-1-2.2-2.3-2.9-3.7-.8-1.6-1.1-3.4-1.1-5.2V28.6c0-1.8.3-3.5 1.1-5.2.7-1.4 1.7-2.7 2.9-3.7s2.6-1.7 4.1-2.2c1.5-.5 3.1-.7 4.7-.7s3.2.3 4.7.9c1.5.6 2.9 1.5 4.2 2.6 1.3 1.2 2.3 2.7 3 4.3.8 1.9 1.2 3.9 1.2 5.9v.7h-6.9v-.7c0-1-.1-2.1-.5-3-.3-.8-.8-1.5-1.4-2.1-.6-.6-1.2-1-1.9-1.3-.7-.3-1.5-.4-2.3-.4-.8 0-1.6.1-2.4.3-.7.2-1.4.5-2 1-.6.4-1 .9-1.4 1.6-.4.7-.5 1.4-.5 2.1v24.2c0 .8.2 1.5.5 2.2.3.6.8 1.1 1.4 1.6.6.5 1.3.8 2 1 .8.2 1.5.3 2.3.3.8-.1 1.5-.3 2.3-.5zm-45.6-37.6c1.2-1 2.6-1.7 4.1-2.2 1.5-.5 3.1-.7 4.7-.7s3.2.2 4.7.7c1.5.5 2.9 1.2 4.1 2.2 1.3 1 2.2 2.2 3 3.7.8 1.6 1.1 3.3 1.1 5.1V53c0 1.8-.3 3.5-1.1 5.1-.7 1.4-1.7 2.7-3 3.7-1.2 1-2.6 1.7-4.1 2.2-1.5.5-3.1.7-4.7.7s-3.2-.2-4.7-.7c-1.5-.5-2.9-1.2-4.1-2.2-1.3-1-2.2-2.2-2.9-3.7-.8-1.6-1.1-3.3-1.1-5.1V28.6c0-1.8.3-3.5 1.1-5.1.7-1.4 1.7-2.6 2.9-3.6zm-52.2 24.5h-11v19.9h-6.7v-47h6.7v20.4h11V17.3h6.7v46.9h-6.7V44.4zm56.7 12.2c.6.4 1.3.8 2 1 .8.2 1.6.3 2.4.3.8 0 1.6-.1 2.4-.3.7-.2 1.4-.5 2-1 .6-.4 1-.9 1.3-1.5.4-.7.5-1.4.5-2.1V28.6c0-.7-.2-1.5-.5-2.1-.3-.6-.8-1.1-1.3-1.5-.6-.4-1.3-.8-2-1-.8-.2-1.6-.3-2.4-.3-.8 0-1.6.1-2.4.3-.7.2-1.4.5-2 1-.6.4-1 .9-1.4 1.5-.4.6-.5 1.4-.5 2.1v24.3c0 .7.1 1.5.5 2.1.3.7.8 1.2 1.4 1.6z"/></svg>